<svg width="32" height="32" viewBox="0 0 32 32" fill="none" xmlns="http://www.w3.org/2000/svg">
<path fill-rule="evenodd" clip-rule="evenodd" d="M6.37467 32H6.37333C5.56933 32 4.91067 31.3667 4.876 30.5613C4.704 26.4013 4.22 14.628 4.22 14.628L1.932 18.7693C1.684 19.2213 1.14133 19.4173 0.661333 19.232L0.66 19.2307C0.254667 19.0733 0 18.688 0 18.2707L0.0386667 17.9907L2.25067 10.1827C2.468 9.41733 3.16667 8.88933 3.96267 8.88933H28.0373C28.8333 8.88933 29.532 9.41733 29.7493 10.1827L31.9613 17.9907L32 18.2707C32 18.688 31.7453 19.0733 31.34 19.2307L31.3387 19.232C30.8587 19.4173 30.316 19.2213 30.068 18.7693L27.78 14.628C27.78 14.628 27.296 26.4013 27.124 30.5613C27.0893 31.3667 26.4307 32 25.6267 32H25.6253C24.8373 32 24.192 31.388 24.132 30.604C23.996 28.8747 23.6333 24.7373 23.524 23.1C23.4787 22.42 22.9813 22.02 22.4413 22.02C21.9573 22.02 21.4133 22.42 21.3693 23.1C21.2587 24.7373 20.896 28.8747 20.7613 30.604C20.7 31.388 20.0547 32 19.268 32H19.2653C18.4627 32 17.8027 31.3667 17.7693 30.5613C17.596 26.4013 16.9107 13.3333 16.9107 13.3333H15.1133C15.1133 13.3333 14.404 26.4013 14.2307 30.5613C14.1973 31.3667 13.5373 32 12.7347 32H12.732C11.9453 32 11.3 31.388 11.2387 30.604C11.104 28.8747 10.7413 24.7373 10.6307 23.1C10.5867 22.42 10.0427 22.02 9.55867 22.02C9.01867 22.02 8.52133 22.42 8.476 23.1C8.36667 24.7373 8.004 28.8747 7.868 30.604C7.808 31.388 7.16267 32 6.37467 32ZM9.55333 0C11.7613 0 13.5533 1.792 13.5533 4C13.5533 6.208 11.7613 8 9.55333 8C7.34667 8 5.55333 6.208 5.55333 4C5.55333 1.792 7.34667 0 9.55333 0ZM22.4467 0C20.2387 0 18.4467 1.792 18.4467 4C18.4467 6.208 20.2387 8 22.4467 8C24.6533 8 26.4467 6.208 26.4467 4C26.4467 1.792 24.6533 0 22.4467 0Z" fill="#CFCFCF"/>
</svg>
