<svg width="414" height="155" viewBox="0 0 414 155" fill="none" xmlns="http://www.w3.org/2000/svg">
<rect y="0.656372" width="414" height="154" fill="#373B63"/>
<path d="M387.95 30.3967C395.907 45.8671 393.726 69.0333 379.975 76.1067C366.223 83.18 346.109 71.482 338.152 56.0116C330.194 40.5412 334.891 22.2659 348.642 15.1926C362.394 8.11923 379.992 14.9264 387.95 30.3967Z" fill="#DE7D81" fill-opacity="0.06"/>
<path d="M68.6038 52.4905C62.7561 68.8752 44.3603 83.1239 29.7961 77.926C15.2319 72.7281 10.0145 50.0519 15.8621 33.6672C21.7097 17.2825 38.2568 8.21374 52.821 13.4116C67.3852 18.6096 74.4514 36.1057 68.6038 52.4905Z" fill="#659999" fill-opacity="0.19"/>
<path d="M282.5 16.6564C282.1 18.6564 280.667 19.823 280 20.1564L282.5 21.6564C284.1 20.4564 284.5 18.1564 284.5 17.1564L282.5 16.6564Z" fill="#EBC787"/>
<path d="M308.827 39.6018C308.554 37.5805 309.53 36.0109 310.052 35.4787L307.2 34.8739C306.077 36.5293 306.448 38.8343 306.773 39.7798L308.827 39.6018Z" fill="#DE7D81"/>
<path d="M25.5766 47.3217C24.8706 49.2353 23.2734 50.165 22.5631 50.3907L24.7996 52.261C26.5666 51.3242 27.3192 49.1143 27.4746 48.1264L25.5766 47.3217Z" fill="#5D70C6"/>
<path d="M59.2793 51.1714C59.372 49.1339 60.6123 47.7637 61.2209 47.3334L58.5227 46.229C57.1227 47.6573 57.0753 49.9913 57.2266 50.9798L59.2793 51.1714Z" fill="#DE7D81"/>
<path d="M70.806 84.5718C72.7702 84.0225 74.4596 84.7718 75.0588 85.2152L75.2636 82.3069C73.469 81.4241 71.2373 82.1093 70.3458 82.5623L70.806 84.5718Z" fill="#EBC787"/>
<path d="M103.417 43.1605C103.397 41.121 104.561 39.685 105.145 39.2219L102.39 38.267C101.071 39.7699 101.151 42.103 101.356 43.0817L103.417 43.1605Z" fill="#5D70C6"/>
<path d="M138.385 14.8059C136.668 13.7048 136.104 11.945 136.036 11.2027L133.729 12.9845C134.263 14.9117 136.26 16.1221 137.191 16.4863L138.385 14.8059Z" fill="#DE7D81"/>
<path d="M72.782 11.7537C71.3109 13.1664 69.4679 13.3047 68.7303 13.1973L69.9247 15.8569C71.9235 15.7865 73.5661 14.1276 74.1376 13.307L72.782 11.7537Z" fill="#5D70C6"/>
<path d="M12.454 16.0771C13.2059 14.1811 14.8251 13.2902 15.5407 13.0817L13.35 11.158C11.5608 12.0519 10.7552 14.243 10.576 15.2268L12.454 16.0771Z" fill="#DE7D81"/>
<path d="M118.653 121.37C120.645 121.804 121.787 123.257 122.109 123.929L123.652 121.455C122.479 119.835 120.187 119.396 119.187 119.378L118.653 121.37Z" fill="#5D70C6"/>
<path d="M187.385 52.8059C185.668 51.7048 185.104 49.945 185.036 49.2027L182.729 50.9845C183.263 52.9117 185.26 54.122 186.191 54.4863L187.385 52.8059Z" fill="#DE7D81"/>
<path d="M239.488 114.537C238.237 116.148 236.434 116.552 235.688 116.552L237.255 119.011C239.223 118.652 240.608 116.772 241.054 115.878L239.488 114.537Z" fill="#EBC787"/>
<path d="M370.74 41.606C369.608 39.9097 369.795 38.0711 370.03 37.3638L367.202 38.0728C366.921 40.0528 368.266 41.9611 368.973 42.6678L370.74 41.606Z" fill="#EBC787"/>
<path d="M353.692 137.209C353.058 139.148 351.497 140.137 350.796 140.39L353.101 142.174C354.832 141.172 355.5 138.935 355.618 137.942L353.692 137.209Z" fill="#5D70C6"/>
<path d="M384.385 128.806C382.668 127.705 382.104 125.945 382.036 125.203L379.729 126.984C380.263 128.912 382.26 130.122 383.191 130.486L384.385 128.806Z" fill="#DE7D81"/>
<path d="M19.3852 111.806C17.6683 110.705 17.104 108.945 17.0364 108.203L14.7288 109.984C15.2635 111.912 17.2597 113.122 18.191 113.486L19.3852 111.806Z" fill="#EBC787"/>
<circle cx="127" cy="95.6563" r="1" fill="#659999"/>
<circle cx="73" cy="43.6564" r="1" fill="#659999"/>
<circle cx="20" cy="69.6563" r="1" fill="#659999"/>
<circle cx="129" cy="54.6563" r="1" fill="#659999"/>
<circle cx="179" cy="9.65637" r="1" fill="#659999"/>
<circle cx="196" cy="47.6564" r="1" fill="#659999"/>
<circle cx="349" cy="22.6564" r="1" fill="#659999"/>
<circle cx="389" cy="56.6563" r="1" fill="#659999"/>
<circle cx="288" cy="114.656" r="1" fill="#659999"/>
<circle cx="249" cy="106.656" r="1" fill="#659999"/>
<circle cx="151" cy="129.656" r="1" fill="#659999"/>
<path d="M179.5 114.656L180.278 117.767L183 118.656L180.278 119.545L179.5 122.656L178.722 119.545L176 118.656L178.722 117.767L179.5 114.656Z" fill="#659999"/>
<path d="M283.5 39.6564L284.278 42.7675L287 43.6564L284.278 44.5453L283.5 47.6564L282.722 44.5453L280 43.6564L282.722 42.7675L283.5 39.6564Z" fill="#C4C4C4"/>
<path d="M387.5 13.6564L388.278 16.7675L391 17.6564L388.278 18.5453L387.5 21.6564L386.722 18.5453L384 17.6564L386.722 16.7675L387.5 13.6564Z" fill="#DDBA7F"/>
<path d="M323.5 120.656L324.278 123.767L327 124.656L324.278 125.545L323.5 128.656L322.722 125.545L320 124.656L322.722 123.767L323.5 120.656Z" fill="#DE7D81"/>
<path d="M87.5 130.656L88.2778 133.767L91 134.656L88.2778 135.545L87.5 138.656L86.7222 135.545L84 134.656L86.7222 133.767L87.5 130.656Z" fill="#DE7D81"/>
<path d="M40.5 5.65637L41.2778 8.76748L44 9.65637L41.2778 10.5453L40.5 13.6564L39.7222 10.5453L37 9.65637L39.7222 8.76748L40.5 5.65637Z" fill="#EBC787"/>
<path d="M27 76.1563C24.6667 76.823 19.6 79.2563 18 83.6563C17.5 85.323 16.8 89.7563 18 94.1563C19.2 98.5563 17.1667 102.323 16 103.656" stroke="#AFAFAF" stroke-opacity="0.06"/>
<path d="M383 74C385.121 74.6061 389.727 76.8182 391.182 80.8182C391.636 82.3333 392.273 86.3636 391.182 90.3636C390.091 94.3636 391.939 97.7879 393 99" stroke="#AFAFAF" stroke-opacity="0.06"/>
</svg>
