<svg width="47" height="51" viewBox="0 0 47 51" fill="none" xmlns="http://www.w3.org/2000/svg">
<path d="M14.4383 1.64452C11.8089 2.96013 14.0731 5.48173 15.5339 6.57808C17.2868 8.33223 15.5339 9.86711 14.4383 10.4153C7.86486 12.1694 4.39552 11.8771 3.48254 11.5116C2.16784 11.0731 1.10882 12.4253 0.743655 13.1562C-1.00927 16.6645 0.743655 21.5615 1.83924 23.5714C2.27747 24.8871 4.21299 23.0233 5.12598 21.9269C8.63184 19.7342 10.6039 22.8405 11.1517 24.6678C11.8821 27.4086 13.0142 33.4385 11.6995 35.6312C10.3848 37.8239 7.86493 36.5449 6.76935 35.6312C6.22156 35.0831 5.12595 34.5349 4.57816 37.2758C4.13993 39.4685 6.58672 44.0366 7.8649 46.0465C8.96048 48.2392 10.6039 46.5947 11.1516 46.5947C11.5899 46.5947 13.8906 45.1329 14.9862 44.402C16.7391 42.6479 20.4641 42.9402 22.1075 43.3057C23.3856 43.6711 25.5038 44.8405 23.7508 46.5947C21.9979 48.3489 22.2901 49.5183 22.6552 49.8837C29.2287 52.515 33.4285 49.8837 34.7066 48.2392C35.0718 47.8738 35.2544 46.7043 33.0633 44.9502C30.8721 43.196 32.1503 41.2957 33.0633 40.5648C32.5155 39.4685 40.1845 38.3721 43.4713 39.4685C46.1007 40.3455 46.758 39.4685 46.758 38.9203C46.9406 36.5449 47.1963 31.2459 46.758 29.0532C46.3198 26.8605 45.1147 26.6777 44.5669 26.8605C44.3843 26.8605 43.6904 27.299 42.3757 29.0532C41.061 30.8073 39.2716 29.7841 38.5412 29.0532C37.0804 27.7741 34.378 23.9003 35.2544 18.6379C36.1309 13.3754 38.176 13.5216 39.089 14.2525C42.5948 17.3223 43.4713 15.5316 43.4713 14.2525C42.5948 5.04319 39.4542 3.47176 37.9934 3.83721C36.8978 4.56811 33.5015 6.35881 28.6809 7.67442C23.8604 8.99004 23.3856 6.7608 23.7508 5.48173C26.3802 1.09635 24.116 0 22.6552 0C22.1075 0 17.7251 0 14.4383 1.64452Z" fill="#99C43C"/>
</svg>
