<svg width="40" height="43" viewBox="0 0 40 43" fill="none" xmlns="http://www.w3.org/2000/svg">
<path d="M12.6735 2.32206C10.5476 3.37972 12.3783 5.40688 13.5593 6.28826C14.9766 7.69846 13.5593 8.93238 12.6736 9.37307C7.35882 10.7833 4.55382 10.5482 3.81567 10.2544C2.75272 9.9019 1.8965 10.9889 1.60125 11.5765C0.183991 14.3969 1.60125 18.3337 2.48704 19.9496C2.84136 21.0072 4.40625 19.5089 5.14441 18.6275C7.97893 16.8648 9.57335 19.362 10.0162 20.831C10.6068 23.0344 11.5221 27.882 10.4591 29.6447C9.3962 31.4075 7.35888 30.3792 6.47309 29.6447C6.0302 29.204 5.14438 28.7633 4.70149 30.9668C4.34717 32.7295 6.32544 36.4019 7.35886 38.0178C8.24465 39.7805 9.57333 38.4585 10.0162 38.4585C10.3705 38.4585 12.2307 37.2833 13.1165 36.6957C14.5337 35.2855 17.5454 35.5206 18.8741 35.8144C19.9075 36.1081 21.6201 37.0483 20.2028 38.4585C18.7855 39.8687 19.0217 40.8088 19.317 41.1026C24.6317 43.2179 28.0273 41.1026 29.0607 39.7805C29.3559 39.4868 29.5036 38.5466 27.732 37.1364C25.9604 35.7262 26.9938 34.1985 27.732 33.6109C27.2891 32.7295 33.4896 31.8482 36.147 32.7295C38.2729 33.4346 38.8044 32.7295 38.8044 32.2889C38.952 30.3792 39.1587 26.1192 38.8044 24.3565C38.45 22.5937 37.4757 22.4468 37.0328 22.5937C36.8852 22.5937 36.3242 22.9463 35.2612 24.3565C34.1983 25.7667 32.7515 24.944 32.1609 24.3565C30.9799 23.3282 28.7949 20.214 29.5036 15.9834C30.2122 11.7528 31.8657 11.8703 32.6038 12.4579C35.4384 14.9257 36.147 13.4862 36.147 12.4579C35.4384 5.05433 32.8991 3.79102 31.7181 4.08482C30.8323 4.6724 28.0863 6.11198 24.1888 7.16963C20.2914 8.22728 19.9075 6.43515 20.2028 5.40688C22.3287 1.88138 20.4981 1 19.317 1C18.8741 1 15.3309 1 12.6735 2.32206Z" fill="#EBC787" stroke="#FCEDCB"/>
</svg>
