<svg width="32" height="34" viewBox="0 0 32 34" fill="none" xmlns="http://www.w3.org/2000/svg">
<path d="M10.2924 1.09635C8.53943 1.97343 10.0489 3.65449 11.0227 4.38539C12.1914 5.55483 11.0228 6.57809 10.2924 6.94354C5.91004 8.11297 3.59715 7.91807 2.98849 7.67443C2.11202 7.38207 1.40601 8.28352 1.16256 8.77078C-0.00605708 11.1097 1.16256 14.3743 1.89295 15.7143C2.18511 16.5914 3.47546 15.3489 4.08412 14.618C6.42136 13.1562 7.73606 15.2271 8.10126 16.4452C8.58818 18.2725 9.34292 22.2924 8.46645 23.7542C7.58998 25.216 5.91009 24.3633 5.1797 23.7542C4.81451 23.3888 4.0841 23.0233 3.7189 24.8505C3.42675 26.3123 5.05795 29.3578 5.91007 30.6977C6.64046 32.1595 7.73604 31.0632 8.10124 31.0632C8.39339 31.0632 9.92721 30.0887 10.6576 29.6014C11.8262 28.432 14.3095 28.6269 15.4051 28.8705C16.2572 29.1141 17.6693 29.8937 16.5007 31.0632C15.3321 32.2326 15.5269 33.0122 15.7703 33.2559C20.1526 35.01 22.9525 33.2559 23.8046 32.1595C24.0481 31.9159 24.1698 31.1363 22.709 29.9668C21.2482 28.7974 22.1004 27.5305 22.709 27.0432C22.3438 26.3123 27.4565 25.5814 29.6477 26.3123C31.4006 26.8971 31.8389 26.3123 31.8389 25.9469C31.9606 24.3633 32.131 20.8306 31.8389 19.3688C31.5467 17.907 30.7433 17.7852 30.3781 17.907C30.2564 17.907 29.7938 18.1994 28.9173 19.3688C28.0408 20.5382 26.8479 19.8561 26.361 19.3688C25.3871 18.5161 23.5855 15.9336 24.1698 12.4253C24.7541 8.91696 26.1175 9.01441 26.7261 9.50168C29.0634 11.5482 29.6477 10.3544 29.6477 9.50168C29.0634 3.36213 26.9696 2.31451 25.9958 2.55814C25.2654 3.04541 23.0012 4.23921 19.7875 5.11629C16.5737 5.99337 16.2572 4.50721 16.5007 3.65449C18.2536 0.730898 16.7442 0 15.7703 0C15.4051 0 12.4835 0 10.2924 1.09635Z" fill="#CFCFCF"/>
</svg>
