<svg width="32" height="32" viewBox="0 0 32 32" fill="none" xmlns="http://www.w3.org/2000/svg">
<path d="M32 18.1547V13.8453C29.7987 13.0627 28.408 12.8427 27.708 11.1533V11.152C27.0053 9.45733 27.8413 8.30667 28.8373 6.20933L25.7907 3.16267C23.7093 4.152 22.5467 4.996 20.848 4.292H20.8467C19.1547 3.59067 18.9333 2.19067 18.1547 0H13.8453C13.0693 2.18 12.8467 3.58933 11.1533 4.292H11.152C9.45733 4.996 8.30933 4.16133 6.20933 3.16267L3.16267 6.20933C4.156 8.3 4.996 9.45467 4.292 11.152C3.58933 12.8467 2.18 13.0693 0 13.8453V18.1547C2.176 18.928 3.58933 19.1533 4.292 20.8467C4.99867 22.556 4.14 23.7347 3.16267 25.7893L6.20933 28.8373C8.292 27.8467 9.45467 27.004 11.152 27.708H11.1533C12.8467 28.4093 13.068 29.8133 13.8453 32H18.1547C18.9307 29.8187 19.1547 28.4133 20.8573 27.704H20.8587C22.5413 27.0053 23.6853 27.8387 25.7893 28.8387L28.836 25.7907C27.844 23.7067 27.0027 22.5467 27.7053 20.8493C28.408 19.1547 29.8227 18.9293 32 18.1547ZM16 21.3333C13.0547 21.3333 10.6667 18.9453 10.6667 16C10.6667 13.0547 13.0547 10.6667 16 10.6667C18.9453 10.6667 21.3333 13.0547 21.3333 16C21.3333 18.9453 18.9453 21.3333 16 21.3333Z" fill="#8A94C8"/>
</svg>
