<svg width="28" height="27" viewBox="0 0 28 27" fill="none" xmlns="http://www.w3.org/2000/svg">
<path d="M5.14248 3.27208C6.26214 3.61383 7.1387 4.49085 7.47951 5.61004C7.82218 4.49039 8.69874 3.61429 9.81747 3.27255C8.69874 2.93081 7.82218 2.05472 7.47951 0.935059C7.1387 2.05425 6.26214 2.93034 5.14248 3.27208ZM8.41497 6.54457C9.08677 6.74934 9.6127 7.27574 9.817 7.94754C10.0227 7.27574 10.5486 6.74981 11.22 6.54504C10.5486 6.33981 10.0227 5.81434 9.817 5.14255C9.6127 5.81387 9.08677 6.33981 8.41497 6.54457V6.54457ZM5.60998 9.11628C6.17005 9.28692 6.60809 9.72543 6.77826 10.285C6.94937 9.72497 7.38788 9.28692 7.94747 9.11628C7.38788 8.94518 6.94983 8.5076 6.77826 7.94754C6.60809 8.50713 6.17005 8.94518 5.60998 9.11628ZM2.80452 3.27255C2.39546 4.61568 1.34219 5.66848 0 6.07801C1.34453 6.48941 2.39546 7.54035 2.80686 8.88487C3.21592 7.54128 4.2692 6.48941 5.60998 6.07801C4.2692 5.66942 3.21592 4.61614 2.80452 3.27255V3.27255Z" fill="#F29D93"/>
<rect x="27.6171" y="23.7949" width="4.45579" height="24.9684" rx="2.2279" transform="rotate(149.515 27.6171 23.7949)" fill="#F29D93"/>
</svg>
