<svg width="32" height="32" viewBox="0 0 32 32" fill="none" xmlns="http://www.w3.org/2000/svg">
<path d="M13.3333 12V10.536L14.7293 4H17.2693L18.6667 10.5333V11.9973C18.6667 13.42 17.4227 14.6667 16 14.6667C14.5773 14.6667 13.3333 13.4227 13.3333 12ZM20 12C20 13.4227 21.2453 14.6667 22.668 14.6667C24.0907 14.6667 25.3333 13.556 25.3333 12.1333V10.6693L21.3387 4H18.748L20 10.536V12ZM6.66667 12.0907C6.66667 13.5133 7.91067 14.6667 9.33333 14.6667C10.756 14.6667 12 13.5133 12 12.0907V10.628L13.252 4H10.6613L6.66667 10.628V12.0907ZM1.33333 16H30.6667V32H1.33333V16ZM4 26.6667H28V18.6667H4V26.6667ZM5.33333 12.0907V10.628L9.18267 4H6.49733L0 10.628V12.092C0 13.5133 1.244 14.6667 2.66667 14.6667C4.08933 14.6667 5.33333 13.5133 5.33333 12.0907ZM25.5027 4H22.8173L26.6667 10.536V12C26.6667 13.4227 27.9107 14.6667 29.3333 14.6667C30.756 14.6667 32 13.5133 32 12.0907V10.628L25.5027 4ZM25.3333 0H6.66667V2.66667H25.3333V0Z" fill="#8A94C8"/>
</svg>
