<svg width="15" height="16" viewBox="0 0 15 16" fill="none" xmlns="http://www.w3.org/2000/svg">
<path d="M4.66062 0.496459C3.86684 0.893625 4.55037 1.65486 4.99136 1.98583C5.52054 2.51539 4.99136 2.97875 4.66063 3.14424C2.67618 3.67379 1.62883 3.58553 1.35321 3.47521C0.956322 3.34282 0.636619 3.75102 0.526379 3.97167C-0.00280681 5.03078 0.52638 6.50912 0.857121 7.11591C0.989418 7.51307 1.57373 6.95042 1.84935 6.61945C2.90772 5.9575 3.50305 6.89526 3.66842 7.44688C3.88892 8.27431 4.23068 10.0947 3.83379 10.7566C3.4369 11.4185 2.6762 11.0324 2.34546 10.7566C2.18009 10.5911 1.84934 10.4256 1.68397 11.2531C1.55167 11.915 2.29032 13.2941 2.67619 13.9008C3.00693 14.5628 3.50304 14.0663 3.66841 14.0663C3.80071 14.0663 4.49527 13.625 4.82601 13.4044C5.3552 12.8748 6.47972 12.9631 6.97583 13.0734C7.36169 13.1837 8.00113 13.5368 7.47194 14.0663C6.94275 14.5959 7.03095 14.9489 7.1412 15.0592C9.12565 15.8536 10.3935 15.0592 10.7794 14.5628C10.8896 14.4525 10.9447 14.0994 10.2832 13.5699C9.62176 13.0403 10.0076 12.4666 10.2832 12.246C10.1179 11.915 12.4331 11.584 13.4253 11.915C14.2191 12.1798 14.4175 11.915 14.4175 11.7495C14.4726 11.0324 14.5498 9.43271 14.4175 8.77077C14.2852 8.10882 13.9214 8.05366 13.756 8.10882C13.7009 8.10882 13.4914 8.24121 13.0945 8.77077C12.6977 9.30032 12.1574 8.99142 11.9369 8.77077C11.496 8.38463 10.6801 7.2152 10.9447 5.62653C11.2093 4.03786 11.8267 4.08199 12.1023 4.30264C13.1607 5.22936 13.4253 4.68878 13.4253 4.30264C13.1607 1.52247 12.2126 1.04808 11.7716 1.1584C11.4408 1.37905 10.4155 1.91964 8.96028 2.31681C7.50502 2.71397 7.36169 2.041 7.47194 1.65486C8.26572 0.330972 7.58219 0 7.1412 0C6.97583 0 5.65284 0 4.66062 0.496459Z" fill="white"/>
</svg>
