<svg width="35" height="35" viewBox="0 0 35 35" fill="none" xmlns="http://www.w3.org/2000/svg">
<path fill-rule="evenodd" clip-rule="evenodd" d="M26.2909 35H26.2646C25.8738 35 25.55 34.6894 25.5369 34.2956C25.464 32.1635 25.814 30.1437 28.84 29.8039C29.9994 29.6742 30.0913 29.2687 30.2925 28.3792C30.6265 26.9092 31.1777 25.5762 34.2315 25.4158C34.6471 25.3867 34.9782 25.7031 34.9986 26.1056C35.019 26.5081 34.7113 26.8523 34.3088 26.8727C32.1038 26.9879 31.9492 27.6704 31.7159 28.7014C31.4942 29.6742 31.1923 31.0071 29.0019 31.255C27.5203 31.4198 26.9136 31.8719 26.9938 34.246C27.0084 34.6485 26.6919 34.9854 26.2909 35ZM14.1255 7.70874C14.4769 8.01936 14.8984 8.24249 15.3534 8.35624L20.5538 9.6629C20.9913 9.77374 21.4536 9.73728 21.8707 9.56082C23.4486 8.88853 27.5028 7.10499 29.2528 6.41811C30.3611 5.98207 31.1019 7.33686 30.208 8.0179C28.1809 9.56665 21.875 13.9767 21.875 13.9767L20.618 19.2967C20.618 19.2967 23.2211 22.0092 24.328 23.2342C24.9448 23.9181 25.343 24.5744 24.9419 25.5602C24.2405 27.2825 22.8171 30.6308 22.1594 32.1912C21.7875 33.0735 20.4619 32.8519 20.6792 31.7217C20.9957 30.0767 21.8182 25.865 21.8182 25.865L16.6294 23.5025C16.6294 23.5025 16.2605 32.1839 16.1525 34.1425C16.1248 34.6398 15.7836 35.0014 15.3038 35C14.9407 34.9985 14.563 34.7477 14.4113 34.1308C13.6325 30.9546 11.2875 21.0204 11.2875 21.0204C10.9827 19.7998 10.8077 18.7892 11.2102 17.2812L12.5446 11.6667C12.5446 11.6667 8.56921 5.85665 7.13567 3.68082C6.54942 2.78978 7.65483 1.95999 8.314 2.54332L14.1255 7.70874ZM3.65754 20.0885L2.41358 20.8337L6.36275 27.4312C3.75525 27.8775 2.10879 30.2079 3.37608 32.3254C4.15921 33.6335 5.93254 33.9383 7.19983 33.18C8.70775 32.2773 9.78692 30.3333 8.62754 28.3908L3.65754 20.0885ZM29.5007 12.5154L30.819 14.9494L33.5417 15.451L31.6342 17.4577L31.9973 20.2023L29.5007 19.0079L27.0025 20.2023L27.3671 17.4577L25.4582 15.451L28.1809 14.9494L29.5007 12.5154ZM4.27442 8.23519L-0.0043335 12.5154L4.27442 16.7956L8.55462 12.5154L4.27442 8.23519ZM17.4796 0.363112C19.463 -0.549805 21.8138 0.319362 22.7253 2.3027C23.6382 4.28603 22.769 6.63686 20.7857 7.54978C18.8023 8.46124 16.4515 7.59207 15.5386 5.60874C14.6271 3.6254 15.4963 1.27457 17.4796 0.363112Z" fill="#8A94C8"/>
</svg>
